<?xml version="1.0" standalone="no"?>
<!DOCTYPE svg PUBLIC "-//W3C//DTD SVG 20010904//EN"
 "http://www.w3.org/TR/2001/REC-SVG-20010904/DTD/svg10.dtd">
<svg version="1.0" xmlns="http://www.w3.org/2000/svg"
 width="960.000000pt" height="960.000000pt" viewBox="0 0 960.000000 960.000000"
 preserveAspectRatio="xMidYMid meet">
<metadata>
Created by potrace 1.14, written by Peter Selinger 2001-2017
</metadata>
<g transform="translate(0.000000,960.000000) scale(0.100000,-0.100000)"
fill="#000000" stroke="none">
<path d="M4689 9116 c-2 -2 -22 -7 -44 -10 -94 -15 -156 -41 -315 -131 -128
-73 -206 -117 -250 -142 -37 -21 -100 -57 -142 -81 -57 -33 -108 -62 -158 -90
-94 -52 -376 -213 -390 -222 -8 -5 -42 -24 -75 -43 -58 -33 -96 -55 -170 -97
-19 -11 -52 -30 -72 -41 -21 -12 -68 -39 -105 -60 -36 -22 -69 -39 -73 -39 -3
0 -21 -11 -39 -25 -18 -14 -35 -23 -38 -20 -3 3 -11 -1 -18 -10 -7 -8 -16 -15
-20 -15 -5 0 -43 -20 -84 -45 -42 -25 -81 -45 -85 -45 -5 0 -11 -3 -13 -8 -1
-4 -24 -18 -50 -32 -26 -14 -124 -69 -217 -122 -93 -54 -172 -98 -176 -98 -3
0 -11 -5 -18 -10 -19 -16 -379 -220 -388 -220 -5 0 -9 -4 -9 -10 0 -5 -5 -10
-11 -10 -6 0 -41 -17 -77 -39 -37 -21 -85 -49 -107 -61 -99 -55 -131 -74 -147
-88 -10 -8 -18 -11 -18 -7 0 4 -8 1 -17 -7 -23 -20 -86 -53 -95 -50 -5 1 -8
-2 -8 -8 0 -5 -19 -18 -42 -29 -24 -12 -61 -31 -83 -44 -78 -45 -90 -51 -97
-49 -5 1 -8 -2 -8 -7 0 -5 -24 -21 -52 -37 -58 -30 -101 -54 -126 -69 -9 -6
-53 -30 -97 -54 -44 -25 -82 -47 -85 -50 -3 -4 -16 -12 -30 -18 -14 -7 -52
-28 -85 -48 -33 -20 -68 -38 -77 -42 -10 -3 -18 -10 -18 -15 0 -5 -4 -7 -9 -3
-5 3 -12 1 -16 -5 -3 -6 -23 -18 -43 -29 -68 -33 -107 -56 -110 -63 -2 -5 -7
-8 -12 -8 -20 0 -178 -102 -205 -132 -36 -39 -65 -97 -65 -128 0 -34 22 -110
31 -110 5 0 9 -5 9 -12 0 -15 80 -88 97 -88 7 0 13 -4 13 -9 0 -5 8 -11 17
-14 10 -4 36 -17 58 -31 22 -14 56 -33 75 -44 34 -19 73 -41 148 -83 20 -12
62 -35 92 -52 30 -17 67 -38 82 -49 14 -10 28 -18 31 -18 3 0 60 -31 127 -70
67 -38 126 -70 131 -70 5 0 9 -4 9 -10 0 -5 5 -10 11 -10 6 0 58 -28 116 -62
149 -89 204 -165 189 -260 -6 -38 -39 -98 -58 -106 -5 -2 -6 -8 -2 -13 3 -5 1
-9 -5 -9 -5 0 -16 -6 -23 -14 -16 -16 -396 -236 -408 -236 -4 0 -13 -7 -20
-15 -7 -8 -21 -15 -30 -15 -10 0 -20 -4 -22 -8 -3 -9 -34 -27 -158 -95 -30
-17 -67 -38 -82 -49 -14 -10 -29 -18 -32 -18 -4 0 -36 -18 -72 -40 -36 -22
-68 -40 -71 -40 -9 0 -128 -75 -131 -82 -2 -5 -8 -8 -12 -8 -17 0 -68 -58 -90
-100 -36 -70 -19 -147 49 -227 11 -13 22 -23 25 -23 3 0 24 -12 48 -28 24 -15
52 -33 63 -40 11 -7 34 -19 50 -27 17 -9 46 -25 65 -37 19 -11 55 -32 80 -46
25 -14 59 -34 75 -44 17 -10 37 -21 45 -25 8 -4 35 -19 61 -33 42 -25 77 -45
174 -100 22 -12 54 -30 70 -40 62 -37 161 -91 177 -97 10 -3 18 -9 18 -13 0
-4 15 -13 32 -21 18 -7 35 -16 38 -19 3 -4 61 -37 130 -75 69 -38 127 -71 130
-74 3 -4 23 -15 45 -26 22 -11 42 -23 45 -26 3 -4 15 -9 28 -13 12 -4 22 -12
22 -17 0 -5 4 -9 10 -9 7 0 112 -57 225 -123 11 -6 31 -18 45 -26 14 -8 26
-13 26 -10 1 2 10 -3 20 -12 11 -9 35 -25 54 -34 19 -10 38 -23 42 -29 4 -6 8
-7 8 -2 0 5 6 4 13 -2 6 -5 29 -19 49 -31 21 -12 55 -31 75 -42 21 -12 58 -33
83 -47 25 -14 48 -30 52 -36 4 -6 8 -8 8 -4 0 6 118 -58 170 -92 8 -6 22 -13
30 -17 17 -8 227 -128 250 -143 8 -6 22 -13 30 -17 8 -4 52 -28 97 -55 45 -26
85 -48 88 -48 4 0 27 -13 52 -30 24 -16 46 -30 48 -30 3 0 42 -22 87 -48 46
-26 103 -58 128 -72 25 -13 51 -30 58 -37 7 -7 18 -13 23 -13 5 0 38 -18 74
-40 36 -22 68 -40 71 -40 4 0 40 -20 80 -45 41 -24 74 -41 74 -37 0 4 4 2 8
-4 4 -6 27 -22 52 -36 62 -35 102 -57 274 -155 82 -46 158 -90 170 -96 11 -7
29 -18 39 -26 9 -8 17 -10 17 -5 0 5 4 4 8 -1 8 -13 170 -105 183 -105 5 0 9
-4 9 -10 0 -5 4 -10 10 -10 5 0 69 -35 142 -77 73 -42 167 -95 208 -118 41
-23 99 -56 128 -74 29 -17 55 -31 58 -31 2 0 21 -11 42 -23 20 -13 57 -35 82
-49 25 -14 79 -45 120 -68 154 -89 195 -111 213 -117 9 -3 17 -9 17 -14 0 -5
4 -9 10 -9 5 0 38 -17 72 -38 35 -21 74 -43 88 -50 14 -7 41 -22 60 -33 19
-12 53 -31 75 -42 22 -12 47 -27 55 -33 14 -11 95 -56 165 -92 17 -8 32 -18
35 -21 3 -3 14 -11 25 -17 11 -6 52 -28 90 -49 39 -21 87 -49 107 -62 21 -13
42 -23 48 -23 5 0 10 -4 10 -10 0 -5 9 -10 19 -10 11 0 21 -4 23 -8 2 -5 44
-31 93 -59 143 -79 185 -103 270 -153 174 -102 256 -125 445 -124 99 0 154 5
205 18 67 18 176 66 240 106 17 10 53 31 80 46 28 14 62 35 78 46 15 11 27 16
27 11 0 -4 4 -3 8 3 4 5 37 27 75 48 97 54 161 120 176 182 13 54 10 77 -14
128 -32 67 -72 98 -259 200 -39 22 -73 42 -76 45 -3 4 -34 22 -70 40 -96 50
-105 55 -110 62 -3 4 -32 21 -65 38 -33 18 -78 43 -100 57 -22 13 -51 29 -65
35 -13 6 -27 13 -30 17 -3 4 -35 23 -72 42 -37 19 -68 38 -68 43 0 4 -5 7 -11
7 -8 0 -173 90 -219 120 -8 5 -28 17 -45 26 -16 9 -61 35 -100 58 -38 22 -73
41 -77 41 -4 0 -13 6 -19 12 -7 7 -18 13 -25 13 -7 0 -14 3 -16 8 -1 4 -21 16
-43 27 -22 11 -46 26 -53 32 -7 7 -20 13 -28 13 -8 0 -14 5 -14 10 0 6 -6 10
-14 10 -7 0 -26 10 -42 23 -16 12 -31 22 -34 21 -3 0 -21 9 -40 20 -19 12 -39
20 -43 18 -4 -1 -10 5 -13 13 -4 8 -14 15 -24 15 -10 0 -23 7 -30 15 -7 8 -19
15 -26 15 -8 0 -14 5 -14 10 0 6 -9 10 -19 10 -11 0 -21 4 -23 8 -1 5 -39 28
-83 53 -44 24 -89 49 -100 56 -11 7 -27 16 -35 20 -8 4 -69 38 -135 77 -66 38
-143 82 -171 97 -28 15 -70 39 -93 53 -23 15 -52 31 -64 37 -12 5 -40 21 -62
34 -22 14 -51 31 -65 37 -14 7 -48 27 -77 45 -29 18 -54 33 -57 33 -3 0 -40
20 -82 45 -41 25 -77 45 -80 45 -2 0 -33 18 -69 40 -36 22 -67 40 -69 40 -2 0
-43 23 -92 51 -49 29 -109 63 -134 77 -25 13 -49 28 -55 32 -5 4 -32 20 -60
35 -149 81 -301 170 -307 179 -4 6 -8 8 -8 3 0 -4 -18 4 -40 18 -22 14 -44 25
-50 25 -5 0 -10 4 -10 9 0 5 -8 11 -17 14 -10 3 -40 19 -68 35 -184 107 -407
232 -414 232 -4 0 -12 5 -19 12 -13 13 -101 64 -172 100 -25 13 -46 26 -48 31
-2 4 -7 7 -12 7 -4 0 -38 18 -74 40 -36 22 -68 40 -70 40 -2 0 -37 19 -78 43
-40 24 -80 46 -88 50 -8 4 -33 18 -55 32 -22 14 -47 28 -55 32 -8 4 -43 24
-78 45 -34 21 -64 38 -67 38 -2 0 -58 32 -124 70 -66 39 -123 70 -127 70 -3 0
-26 14 -51 30 -24 17 -46 30 -49 30 -11 0 -77 67 -96 98 -30 49 -35 114 -12
165 29 65 86 114 212 183 29 16 61 34 70 39 9 6 80 46 157 90 77 44 158 90
180 102 22 13 51 29 65 36 14 6 27 14 30 18 3 3 10 8 15 10 6 2 92 51 192 108
251 144 304 197 299 303 -3 59 -33 114 -85 158 -33 27 -489 290 -502 290 -5 0
-9 3 -9 8 0 4 -15 14 -32 21 -18 8 -61 32 -96 53 -34 21 -67 38 -72 38 -6 0
-10 5 -10 10 0 6 -5 10 -11 10 -6 0 -38 16 -72 36 -34 20 -91 52 -127 72 -36
19 -66 39 -68 43 -2 5 -9 9 -16 9 -21 0 -104 87 -120 125 -33 78 -15 147 57
217 52 51 58 55 117 88 65 35 112 61 165 93 26 15 51 27 56 27 5 0 9 5 9 10 0
6 9 10 19 10 11 0 21 3 23 8 3 7 234 142 243 142 2 0 29 16 59 35 30 19 57 35
59 35 2 0 60 32 128 71 68 39 144 83 169 97 176 98 275 157 278 164 2 4 12 8
22 8 10 0 21 4 25 9 3 6 20 17 38 27 55 29 101 54 137 75 19 12 53 31 75 42
22 12 42 25 45 28 3 3 30 19 60 34 30 16 62 35 70 41 8 7 22 14 30 16 8 2 17
6 20 9 4 5 128 77 249 144 11 6 26 17 35 24 9 7 16 10 16 7 0 -4 12 0 28 8 28
15 104 40 157 52 50 10 258 13 311 3 77 -14 183 -50 220 -75 19 -13 34 -21 34
-18 0 3 12 -3 28 -14 15 -10 74 -45 132 -78 57 -32 114 -64 125 -71 11 -7 26
-15 34 -19 8 -4 63 -36 123 -71 60 -35 111 -63 113 -63 3 0 35 -18 71 -41 37
-22 77 -45 88 -50 12 -5 35 -18 51 -28 17 -10 47 -28 68 -40 21 -12 71 -40
110 -63 40 -23 92 -52 117 -65 52 -28 83 -46 90 -53 3 -3 21 -13 40 -24 99
-53 146 -79 155 -86 6 -5 35 -22 65 -38 55 -30 126 -70 229 -130 31 -18 65
-37 76 -42 11 -6 36 -20 55 -31 130 -77 188 -109 198 -109 7 0 12 -4 12 -10 0
-5 4 -10 10 -10 8 0 72 -39 95 -58 44 -37 85 -118 85 -167 0 -76 -72 -169
-165 -215 -16 -8 -37 -19 -45 -26 -8 -6 -42 -26 -75 -44 -115 -63 -142 -78
-404 -229 -146 -83 -269 -151 -273 -151 -4 0 -8 -4 -8 -10 0 -5 -9 -10 -20
-10 -11 0 -20 -4 -20 -10 0 -5 -4 -10 -10 -10 -5 0 -36 -16 -67 -36 -133 -84
-178 -181 -135 -287 14 -34 88 -109 128 -129 43 -22 124 -68 166 -95 21 -12
40 -23 42 -23 2 0 50 -27 106 -60 56 -33 103 -60 106 -60 2 0 38 -20 80 -45
41 -25 80 -45 85 -45 5 0 9 -4 9 -8 0 -4 12 -13 28 -19 15 -7 54 -28 87 -47
33 -20 98 -57 145 -82 82 -46 138 -83 171 -114 22 -22 62 -80 53 -80 -3 0 -1
-7 6 -15 6 -8 9 -19 5 -25 -3 -5 -2 -10 4 -10 14 0 -13 -94 -37 -128 -26 -35
-90 -88 -139 -114 -21 -11 -47 -26 -58 -32 -11 -7 -47 -28 -80 -46 -33 -18
-73 -41 -90 -51 -16 -10 -55 -32 -85 -49 -30 -17 -62 -35 -70 -40 -44 -29
-282 -160 -290 -160 -6 0 -10 -3 -10 -7 0 -5 -23 -19 -51 -33 -28 -13 -55 -30
-61 -37 -6 -7 -19 -13 -29 -13 -11 0 -19 -4 -19 -10 0 -5 -11 -12 -25 -16 -14
-3 -25 -10 -25 -15 0 -5 -6 -9 -14 -9 -8 0 -39 -23 -70 -50 -120 -111 -112
-232 25 -340 28 -22 57 -40 65 -40 8 0 14 -4 14 -8 0 -5 16 -14 35 -22 19 -8
35 -17 35 -22 0 -4 4 -8 9 -8 5 0 65 -32 133 -71 171 -99 203 -113 333 -146
39 -10 261 -11 310 -2 28 6 61 12 74 15 40 8 136 50 200 88 34 20 64 36 67 36
3 0 10 5 17 11 7 5 101 60 210 122 276 156 281 159 287 166 3 3 10 7 15 8 6 1
66 34 135 73 139 80 610 348 680 388 25 14 59 33 75 43 17 10 53 30 80 44 28
15 58 34 68 43 9 8 17 12 17 8 0 -4 12 1 28 12 15 10 47 30 72 44 25 14 63 35
85 48 22 13 60 34 85 48 166 93 214 143 227 238 7 50 -21 119 -66 163 -26 26
-48 41 -131 91 -8 5 -55 32 -105 60 -49 28 -97 55 -105 60 -8 6 -22 13 -30 17
-8 4 -99 55 -203 115 -104 59 -193 108 -198 108 -5 0 -9 5 -9 11 0 5 -4 7 -10
4 -5 -3 -10 -3 -10 2 0 4 -13 14 -30 21 -16 7 -45 24 -64 37 -19 13 -37 21
-40 17 -3 -3 -6 0 -6 6 0 7 -5 12 -10 12 -23 0 -141 84 -168 118 -40 53 -50
82 -48 139 5 98 58 148 307 287 106 60 202 116 212 124 9 8 17 12 17 8 0 -4
14 2 30 14 37 27 148 89 173 97 9 3 17 9 17 14 0 5 4 9 9 9 5 0 89 46 186 101
191 109 254 161 273 228 16 51 15 69 -4 124 -17 50 -83 117 -151 152 -21 11
-44 26 -51 32 -7 7 -17 13 -21 13 -6 0 -211 113 -271 149 -77 48 -193 111
-200 111 -6 0 -10 5 -10 10 0 6 -4 10 -10 10 -10 0 -247 133 -267 150 -7 5
-14 10 -17 10 -3 0 -86 46 -183 102 -98 55 -193 109 -210 120 -18 10 -50 28
-70 39 -21 12 -63 35 -93 52 -30 16 -67 38 -82 48 -14 11 -28 19 -31 19 -3 0
-43 23 -90 50 -47 28 -90 50 -96 50 -6 0 -11 4 -11 8 0 5 -16 14 -35 22 -19 8
-35 17 -35 20 0 3 -16 12 -35 20 -19 8 -35 17 -35 22 0 4 -4 8 -9 8 -5 0 -111
59 -236 130 -126 72 -232 130 -236 130 -4 0 -9 3 -11 8 -1 4 -19 15 -38 26
-55 29 -101 55 -155 87 -27 16 -66 37 -85 47 -19 9 -37 20 -40 23 -3 3 -34 22
-70 41 -36 20 -94 53 -130 73 -36 21 -90 51 -120 68 -30 17 -82 47 -115 67
-33 19 -71 41 -85 48 -14 7 -47 26 -75 42 -27 17 -60 35 -73 40 -12 5 -35 18
-50 28 -15 11 -74 46 -132 78 -57 33 -114 64 -125 71 -11 7 -31 18 -45 25 -14
7 -41 22 -60 34 -19 11 -56 32 -81 46 -81 45 -94 53 -99 58 -3 3 -16 11 -30
17 -14 7 -50 27 -80 44 -30 18 -80 45 -110 62 -30 16 -62 35 -70 41 -30 24
-160 81 -203 90 -12 3 -33 8 -47 11 -29 8 -275 17 -281 11z"/>
</g>
</svg>
